<!DOCTYPE svg PUBLIC "-//W3C//DTD SVG 20010904//EN" "http://www.w3.org/TR/2001/REC-SVG-20010904/DTD/svg10.dtd">
<svg version="1.0" xmlns="http://www.w3.org/2000/svg" width="26px" height="26px" viewBox="0 0 260 260" preserveAspectRatio="xMidYMid meet">
<g id="layer101" fill="#000000" stroke="none">
 <path d="M51 225 c-61 -52 -62 -137 -1 -189 41 -34 79 -40 128 -21 63 25 89 82 71 151 -23 80 -133 113 -198 59z"/>
 </g>
<g id="layer102" fill="#64aac5" stroke="none">
 <path d="M120 170 c0 -27 -3 -30 -30 -30 -16 0 -30 -4 -30 -10 0 -5 14 -10 30 -10 27 0 30 -3 30 -30 0 -16 5 -30 10 -30 6 0 10 14 10 30 0 27 3 30 30 30 17 0 30 5 30 10 0 6 -13 10 -30 10 -27 0 -30 3 -30 30 0 17 -4 30 -10 30 -5 0 -10 -13 -10 -30z"/>
 </g>

</svg>